<?xml version="1.0" encoding="UTF-8"?>
<svg xmlns="http://www.w3.org/2000/svg" version="1.1" viewBox="0 0 800 800">
  <defs>
    <style>
      .cls-1 {
        fill: #fff;
      }
    </style>
  </defs>
  <!-- Generator: Adobe Illustrator 28.6.0, SVG Export Plug-In . SVG Version: 1.2.0 Build 709)  -->
  <g>
    <g id="Capa_1">
      <g>
        <path class="cls-1" d="M208.2,431.9h325.1c17.1,0,31-13.9,31-31s-13.9-31-31-31H208.2l80.5-80.5c12.1-12.1,12.1-31.8,0-43.9-12.1-12.1-31.8-12.1-43.9,0l-133.3,133.3-.2.2c-2.6,2.7-4.7,6-6.3,9.6h0c-1.4,3.5-2.1,7-2.2,10.7h0c0,0,0,2.2,0,2.2.1,3.8.9,7.4,2.3,10.7,1.6,3.6,3.7,6.9,6.3,9.6l133.5,133.5c4.4,4.4,9.9,7.3,15.9,8.5v1.6h6c8.3,0,16.1-3.2,21.9-9.1s9.1-13.7,9.1-21.9-3.2-16.1-9.1-21.9l-80.5-80.5Z"/>
        <path class="cls-1" d="M600,102.3h-100c-17.1,0-31,13.9-31,31s13.9,31,31,31h100c19.7,0,35.7,16,35.7,35.7v400c0,19.7-16,35.7-35.7,35.7h-100c-17.1,0-31,13.9-31,31s13.9,31,31,31h100c53.9,0,97.7-43.8,97.7-97.7V200c0-53.9-43.8-97.7-97.7-97.7Z"/>
      </g>
    </g>
  </g>
</svg>