<svg width="63" height="40" viewBox="0 0 63 40" fill="none" xmlns="http://www.w3.org/2000/svg">
<path d="M54.6222 33.7601C55.4213 34.1831 56.1264 34.0891 56.7375 33.4781C57.3485 32.867 57.4425 32.1619 57.0195 31.3629L52.9301 23.7481L49.9688 31.3629L54.6222 33.7601ZM40.5208 31.0808H43.9052L50.6738 14.3001C50.8149 13.9241 50.7796 13.6068 50.5681 13.3483C50.3566 13.0898 50.1098 12.89 49.8278 12.749L44.1872 10.4928C43.7641 10.3517 43.3529 10.3987 42.9533 10.6338C42.5538 10.8688 42.307 11.1978 42.213 11.6209L40.5208 31.0808ZM19.6507 31.0808H23.0351L21.3429 11.6209C21.2489 11.1038 21.0021 10.7513 20.6026 10.5633C20.203 10.3752 19.7917 10.3517 19.3687 10.4928L13.7281 12.749C13.3521 12.89 13.0818 13.0898 12.9173 13.3483C12.7528 13.6068 12.741 13.9241 12.882 14.3001L19.6507 31.0808ZM8.93364 33.7601L13.5871 31.3629L10.6258 23.7481L6.5364 31.3629C6.11336 32.1619 6.20737 32.867 6.81843 33.4781C7.42949 34.0891 8.13456 34.1831 8.93364 33.7601ZM28.6756 31.0808H34.8803L36.9955 7.24942C37.0895 6.82638 36.9837 6.4621 36.6782 6.15656C36.3727 5.85103 36.0084 5.69827 35.5853 5.69827H27.9706C27.5945 5.69827 27.2537 5.85103 26.9482 6.15656C26.6427 6.4621 26.5134 6.82638 26.5604 7.24942L28.6756 31.0808ZM7.66452 39.5417C5.69032 39.5417 4.04515 38.8013 2.72902 37.3207C1.41289 35.84 0.754822 34.0891 0.754822 32.0679C0.754822 31.5039 0.83708 30.9516 1.0016 30.411C1.16611 29.8705 1.36588 29.3416 1.60091 28.8246L7.80553 16.9794C7.14747 15.0992 7.17097 13.2425 7.87604 11.4093C8.58111 9.57616 9.82673 8.28353 11.6129 7.53145L17.2535 5.27523C17.9115 5.0402 18.5696 4.87569 19.2277 4.78168C19.8857 4.68767 20.5438 4.71117 21.2019 4.85218C21.8599 3.48905 22.7765 2.34918 23.9517 1.43259C25.1268 0.515997 26.4664 0.0577011 27.9706 0.0577011H35.5853C37.0895 0.0577011 38.4291 0.515997 39.6042 1.43259C40.7794 2.34918 41.6959 3.48905 42.354 4.85218C43.0121 4.75817 43.6701 4.74642 44.3282 4.81693C44.9863 4.88744 45.6443 5.0402 46.3024 5.27523L51.943 7.53145C53.8232 8.28353 55.1393 9.57616 55.8914 11.4093C56.6434 13.2425 56.5964 15.0522 55.7504 16.8384L61.955 28.6836C62.237 29.2006 62.4485 29.7412 62.5895 30.3052C62.7306 30.8693 62.8011 31.4569 62.8011 32.0679C62.8011 34.1831 62.0842 35.9576 60.6506 37.3912C59.217 38.8249 57.4425 39.5417 55.3273 39.5417C54.8103 39.5417 54.2932 39.4829 53.7762 39.3654C53.2591 39.2479 52.7421 39.0716 52.225 38.8366L47.8536 36.7214H15.5613L11.6129 38.8366C11.0019 39.1656 10.3555 39.3654 9.67397 39.4359C8.9924 39.5064 8.32258 39.5417 7.66452 39.5417Z" fill="#676767"/>
</svg>
