<?xml version="1.0" encoding="UTF-8"?>
<svg xmlns="http://www.w3.org/2000/svg" version="1.1" viewBox="0 0 800 800">
  <defs>
    <style>
      .cls-1 {
        fill: #676767;
      }
    </style>
  </defs>
  <!-- Generator: Adobe Illustrator 28.7.1, SVG Export Plug-In . SVG Version: 1.2.0 Build 142)  -->
  <g>
    <g id="Capa_1">
      <g>
        <path class="cls-1" d="M478.4,90l-343.5,84.7v505.7l343.2,29.6,187.1-31.8V165.8l-186.8-75.8ZM441.6,661.3l-112.1-9.7v-96.2l-66.7-.8v91.3l-82.5-7.1V210.3l261.3-64.5v515.4Z"/>
        <polygon class="cls-1" points="418.5 183.2 364.3 194.5 364.3 258.3 418.5 248.9 418.5 183.2"/>
        <polygon class="cls-1" points="233.6 225.7 195.9 233.6 195.9 289.6 233.6 283.1 233.6 225.7"/>
        <polygon class="cls-1" points="320.1 206.2 272.2 216.2 272.2 275.3 320.1 267 320.1 206.2"/>
        <polygon class="cls-1" points="233.6 336 195.9 341.2 195.9 397.2 233.6 393.5 233.6 336"/>
        <polygon class="cls-1" points="320.1 323.5 272.2 330 272.2 389 320.1 384.3 320.1 323.5"/>
        <polygon class="cls-1" points="418.5 309.2 364.3 316.6 364.3 379.3 418.5 374 418.5 309.2"/>
        <polygon class="cls-1" points="418.5 436.5 364.3 439.8 364.3 502.6 418.5 501.2 418.5 436.5"/>
        <polygon class="cls-1" points="320.1 443 272.2 445.9 272.2 505 320.1 503.8 320.1 443"/>
        <polygon class="cls-1" points="233.6 448.7 195.9 451 195.9 507.1 233.6 506.1 233.6 448.7"/>
      </g>
    </g>
  </g>
</svg>