<svg width="62" height="45" viewBox="0 0 62 45" fill="none" xmlns="http://www.w3.org/2000/svg">
<path d="M0.665863 44.9135V37.2202C0.665863 35.6632 1.06655 34.2322 1.86794 32.9271C2.66932 31.622 3.73401 30.626 5.06202 29.9391C7.9012 28.5195 10.7862 27.4548 13.7169 26.745C16.6477 26.0352 19.6243 25.6803 22.6466 25.6803C25.669 25.6803 28.6456 26.0352 31.5763 26.745C34.5071 27.4548 37.3921 28.5195 40.2312 29.9391C41.5593 30.626 42.6239 31.622 43.4253 32.9271C44.2267 34.2322 44.6274 35.6632 44.6274 37.2202V44.9135H0.665863ZM50.1226 44.9135V36.6707C50.1226 34.6558 49.5616 32.721 48.4397 30.8664C47.3178 29.0118 45.7264 27.4204 43.6657 26.0924C46.0012 26.3672 48.1993 26.8366 50.26 27.5006C52.3207 28.1646 54.244 28.9774 56.0299 29.9391C57.6785 30.8549 58.9378 31.8738 59.8079 32.9958C60.6779 34.1177 61.113 35.3427 61.113 36.6707V44.9135H50.1226ZM22.6466 22.9327C19.6243 22.9327 17.037 21.8566 14.8847 19.7043C12.7324 17.552 11.6562 14.9647 11.6562 11.9423C11.6562 8.91996 12.7324 6.33264 14.8847 4.18036C17.037 2.02807 19.6243 0.951933 22.6466 0.951933C25.669 0.951933 28.2563 2.02807 30.4086 4.18036C32.5609 6.33264 33.637 8.91996 33.637 11.9423C33.637 14.9647 32.5609 17.552 30.4086 19.7043C28.2563 21.8566 25.669 22.9327 22.6466 22.9327ZM50.1226 11.9423C50.1226 14.9647 49.0465 17.552 46.8942 19.7043C44.7419 21.8566 42.1546 22.9327 39.1322 22.9327C38.6285 22.9327 37.9874 22.8755 37.2089 22.761C36.4304 22.6465 35.7893 22.5206 35.2856 22.3832C36.522 20.9178 37.4722 19.2921 38.1362 17.5062C38.8002 15.7203 39.1322 13.8656 39.1322 11.9423C39.1322 10.019 38.8002 8.16437 38.1362 6.37844C37.4722 4.5925 36.522 2.96684 35.2856 1.50145C35.9267 1.27249 36.5678 1.12366 37.2089 1.05497C37.85 0.986278 38.4911 0.951933 39.1322 0.951933C42.1546 0.951933 44.7419 2.02807 46.8942 4.18036C49.0465 6.33264 50.1226 8.91996 50.1226 11.9423ZM6.16106 39.4183H39.1322V37.2202C39.1322 36.7165 39.0063 36.2585 38.7544 35.8464C38.5026 35.4343 38.1706 35.1137 37.7584 34.8847C35.2856 33.6483 32.7898 32.721 30.2712 32.1028C27.7526 31.4846 25.2111 31.1755 22.6466 31.1755C20.0822 31.1755 17.5407 31.4846 15.0221 32.1028C12.5034 32.721 10.0077 33.6483 7.53485 34.8847C7.12271 35.1137 6.79071 35.4343 6.53885 35.8464C6.28699 36.2585 6.16106 36.7165 6.16106 37.2202V39.4183ZM22.6466 17.4375C24.1578 17.4375 25.4515 16.8994 26.5276 15.8233C27.6038 14.7472 28.1418 13.4535 28.1418 11.9423C28.1418 10.4311 27.6038 9.13748 26.5276 8.06134C25.4515 6.9852 24.1578 6.44713 22.6466 6.44713C21.1355 6.44713 19.8418 6.9852 18.7657 8.06134C17.6895 9.13748 17.1514 10.4311 17.1514 11.9423C17.1514 13.4535 17.6895 14.7472 18.7657 15.8233C19.8418 16.8994 21.1355 17.4375 22.6466 17.4375Z" fill="#676767"/>
</svg>
