<?xml version="1.0" encoding="UTF-8"?>
<svg xmlns="http://www.w3.org/2000/svg" version="1.1" viewBox="0 0 800 800">
  <defs>
    <style>
      .cls-1 {
        fill: #676767;
      }
    </style>
  </defs>
  <!-- Generator: Adobe Illustrator 28.7.1, SVG Export Plug-In . SVG Version: 1.2.0 Build 142)  -->
  <g>
    <g id="Capa_1">
      <g id="Layer_1">
        <path class="cls-1" d="M649.7,125c-53.3-30.3-123.6-47-198.1-47s-145.4,16.8-198.8,47.5c21.1-3.2,42.8-5.1,64.9-5.5,3.3,0,6.7,0,10,0,22.9,0,45.4,1.5,67.3,4.5,52.7,7.1,101.4,22.6,141.3,45.3,29.6,16.8,53.1,36.9,70,59.6,19.2,25.8,29.3,54.9,29.3,84.3s-.5,13.3-1.5,19.8c-3.3,21.3-11.8,41.8-25.2,60.9-8.8,12.4-19.6,24.2-32.3,35.2v292.5l102.5-52.4v-313.5c38.2-29.9,59.2-67.1,59.2-105.8s-31.4-92.9-88.5-125.4h-.2Z"/>
        <path class="cls-1" d="M327.8,162.6c-57.9,0-111.5,10.6-155,28.5l-.8.4-43.2,22.4c-41.1,26.6-66,61.5-66,99.7s22.2,69.2,59.2,95.1v311.2h412v-311.2c19.8-13.9,35.4-29.9,45.6-47.3,8.8-15,13.6-31.1,13.6-47.9,0-83.4-118.7-151.1-265.1-151.1h0ZM168.3,309.9h37v37h-37s0-37,0-37ZM199.2,468.9h37v37h-37v-37ZM254.6,654.9h-37v-37h37v37ZM271.8,234.5h37v37h-37v-37ZM299.9,377.1h37v37h-37v-37ZM362.3,567.1h-37v-37h37v37ZM412.3,277.5h37v37h-37v-37h0ZM453,487.3h-37v-37h37v37Z"/>
      </g>
    </g>
  </g>
</svg>