<?xml version="1.0" encoding="UTF-8"?>
<svg xmlns="http://www.w3.org/2000/svg" version="1.1" viewBox="0 0 800 800">
  <defs>
    <style>
      .cls-1 {
        fill: #676767;
        fill-rule: evenodd;
      }
    </style>
  </defs>
  <!-- Generator: Adobe Illustrator 28.7.1, SVG Export Plug-In . SVG Version: 1.2.0 Build 142)  -->
  <g>
    <g id="Capa_1">
      <g id="Capa_1-2" data-name="Capa_1">
        <path class="cls-1" d="M74.6,76.3c-13.1-4.4-27.3,2.7-31.6,15.8-4.4,13.1,2.7,27.3,15.8,31.6l8.8,2.9c22.5,7.5,37.5,12.5,48.4,17.6,10.4,4.8,14.9,8.7,17.8,12.7,2.9,4,5.2,9.5,6.5,20.9,1.4,12,1.4,27.8,1.4,51.5v89.1c0,45.6,0,82.3,3.9,111.2,4,30,12.7,55.3,32.7,75.3,20.1,20.1,45.3,28.7,75.3,32.7,28.9,3.9,65.6,3.9,111.2,3.9h235.2c13.8,0,25-11.2,25-25s-11.2-25-25-25h-233.3c-47.8,0-81.2,0-106.4-3.4-24.5-3.3-37.4-9.3-46.6-18.5-7.8-7.8-13.4-18.4-16.9-36.4h337.3c32,0,48,0,60.5-8.3s18.8-23,31.4-52.4l14.3-33.3c27-63,40.5-94.4,25.7-116.9s-49.1-22.5-117.6-22.5H191.5c-.2-10.3-.6-19.5-1.6-27.8-1.8-16.2-5.9-31-15.6-44.5-9.7-13.5-22.5-22-37.2-28.8-13.9-6.5-31.5-12.3-52.4-19.3l-10.1-3.4v.3Z"/>
        <path class="cls-1" d="M250,600c27.6,0,50,22.4,50,50s-22.4,50-50,50-50-22.4-50-50,22.4-50,50-50Z"/>
        <path class="cls-1" d="M550,600c27.6,0,50,22.4,50,50s-22.4,50-50,50-50-22.4-50-50,22.4-50,50-50Z"/>
      </g>
    </g>
  </g>
</svg>