<?xml version="1.0" encoding="UTF-8"?>
<svg xmlns="http://www.w3.org/2000/svg" version="1.1" viewBox="0 0 800 800">
  <defs>
    <style>
      .cls-1 {
        fill: #5b5b5b;
      }
    </style>
  </defs>
  <!-- Generator: Adobe Illustrator 28.7.1, SVG Export Plug-In . SVG Version: 1.2.0 Build 142)  -->
  <g>
    <g id="Capa_1">
      <path class="cls-1" d="M533.3,733.3c-8.5,0-17.1-3.3-23.6-9.8-13-13-13-34.1,0-47.1l76.4-76.4H133.3c-18.4,0-33.3-14.9-33.3-33.3s14.9-33.3,33.3-33.3h452.9l-76.4-76.4c-13-13-13-34.1,0-47.1,13-13,34.1-13,47.1,0l133.3,133.3c3.4,3.4,5.9,7.4,7.6,11.6,1.2,3.2,2,6.7,2.2,10.3,0,1,0,2.1,0,3.1-.2,3.8-1,7.4-2.3,10.8-1.6,4.1-4.1,7.9-7.4,11.2l-133.3,133.3c-6.5,6.5-15,9.8-23.6,9.8ZM266.7,400c-8.5,0-17.1-3.3-23.6-9.8l-133.2-133.2c-.5-.5-1-1.1-1.5-1.6,0,0,0,0,0,0,0,0,0,0,0,0-2.4-2.7-4.2-5.6-5.6-8.8-1.8-4.1-2.7-8.6-2.7-13.3s1-9.4,2.8-13.5h0s0,0,0,0c1.3-3,3.1-5.8,5.3-8.3,0,0,0,0,0,0,0,0,0,0,0,0,.5-.6,1.1-1.2,1.7-1.8L243.1,76.4c13-13,34.1-13,47.1,0,13,13,13,34.1,0,47.1l-76.4,76.4h286.2c18.4,0,33.3,14.9,33.3,33.3s-14.9,33.3-33.3,33.3H213.8l76.4,76.4c13,13,13,34.1,0,47.1s-15,9.8-23.6,9.8Z"/>
    </g>
  </g>
</svg>