<?xml version="1.0" encoding="UTF-8"?>
<svg xmlns="http://www.w3.org/2000/svg" version="1.1" viewBox="0 0 800 800">
  <defs>
    <style>
      .cls-1 {
        fill: #fff;
        fill-rule: evenodd;
      }
    </style>
  </defs>
  <!-- Generator: Adobe Illustrator 28.6.0, SVG Export Plug-In . SVG Version: 1.2.0 Build 709)  -->
  <g>
    <g id="Capa_1">
      <path class="cls-1" d="M333.3,66.7c-20,0-33.3,13.3-33.3,33.3h0v600c0,20,13.3,33.3,33.3,33.3s33.3-13.3,33.3-33.3V100c0-20-13.3-33.3-33.3-33.3h0ZM166.7,400c-20,0-33.3,13.3-33.3,33.3h0v266.7c0,20,13.3,33.3,33.3,33.3s33.3-13.3,33.3-33.3v-266.7c0-20-13.3-33.3-33.3-33.3h0ZM500,266.7c-20,0-33.3,13.3-33.3,33.3h0v400c0,20,13.3,33.3,33.3,33.3s33.3-13.3,33.3-33.3v-400c0-20-13.3-33.3-33.3-33.3h0ZM666.7,533.3c-20,0-33.3,13.3-33.3,33.3h0v133.3c0,20,13.3,33.3,33.3,33.3s33.3-13.3,33.3-33.3v-133.3c0-20-13.3-33.3-33.3-33.3h0Z"/>
    </g>
  </g>
</svg>