<?xml version="1.0" encoding="UTF-8"?>
<svg xmlns="http://www.w3.org/2000/svg" version="1.1" viewBox="0 0 800 800">
  <defs>
    <style>
      .cls-1 {
        fill: #fff;
        fill-rule: evenodd;
      }
    </style>
  </defs>
  <!-- Generator: Adobe Illustrator 28.6.0, SVG Export Plug-In . SVG Version: 1.2.0 Build 709)  -->
  <g>
    <g id="Capa_1">
      <g id="Capa_1-2" data-name="Capa_1">
        <path class="cls-1" d="M66.7,400c0-184.1,149.2-333.3,333.3-333.3s333.3,149.2,333.3,333.3-149.2,333.3-333.3,333.3S66.7,584.1,66.7,400ZM400,200c-73.6,0-133.3,59.7-133.3,133.3s59.7,133.3,133.3,133.3,133.3-59.7,133.3-133.3-59.7-133.3-133.3-133.3h0ZM570.4,533.2c25.3,16.3,24,51.7,1,71-46.4,38.9-106.1,62.4-171.4,62.4s-124.3-23.1-170.5-61.6c-23.2-19.3-24.4-55,.9-71.3,7.9-5.1,16.5-9.6,25.8-13.4,37.6-15.5,85.5-20.3,143.7-20.3s106.7,4.5,144.4,19.8c9.4,3.8,18.1,8.3,26,13.4h0Z"/>
      </g>
    </g>
  </g>
</svg>