<?xml version="1.0" encoding="UTF-8"?>
<svg xmlns="http://www.w3.org/2000/svg" version="1.1" viewBox="0 0 654 673">
  <defs>
    <style>
      .cls-1 {
        fill: #5b5b5b;
        fill-rule: evenodd;
      }
    </style>
  </defs>
  <!-- Generator: Adobe Illustrator 28.6.0, SVG Export Plug-In . SVG Version: 1.2.0 Build 709)  -->
  <g>
    <g id="Capa_1">
      <path class="cls-1" d="M330,41.1l275,135.9v309l-275,135.9L55,486V177L330,41.1ZM105,232.8v222.2l200,98.8v-222.2l-200-98.8ZM355,331.6v222.2l200-98.8v-222.2l-75,37.1v99.2l-50,25v-99.5l-75,37.1ZM523.6,192.5l-65.1,32.2c-1.4-1.2-3-2.2-4.7-3.1l-187-93.5,63.3-31.3,193.6,95.6ZM210.5,155.9l192.4,96.2-72.9,36-193.6-95.6,74-36.6Z"/>
    </g>
  </g>
</svg>