<svg width="53" height="48" viewBox="0 0 53 48" fill="none" xmlns="http://www.w3.org/2000/svg">
<path d="M49.5805 21.6358V42.2656C49.5805 43.6929 49.0723 44.9146 48.056 45.931C47.0396 46.9474 45.8178 47.4555 44.3906 47.4555H8.06126C6.63404 47.4555 5.41225 46.9474 4.39589 45.931C3.37954 44.9146 2.87136 43.6929 2.87136 42.2656V21.6358C1.87663 20.7275 1.10895 19.5598 0.568338 18.1326C0.027723 16.7054 0.0169107 15.1484 0.535901 13.4617L3.2606 4.63883C3.60659 3.51435 4.2229 2.58449 5.1095 1.84926C5.99611 1.11402 7.02328 0.746403 8.19101 0.746403H44.2608C45.4286 0.746403 46.4449 1.10321 47.3099 1.81682C48.1749 2.53043 48.802 3.4711 49.1912 4.63883L51.916 13.4617C52.4349 15.1484 52.4241 16.6837 51.8835 18.0677C51.3429 19.4517 50.5752 20.641 49.5805 21.6358ZM31.9348 18.9111C33.1026 18.9111 33.9892 18.511 34.5946 17.7109C35.2001 16.9108 35.438 16.0134 35.3083 15.0186L33.881 5.93631H28.8209V15.5376C28.8209 16.4459 29.1236 17.2352 29.7291 17.9055C30.3346 18.5759 31.0698 18.9111 31.9348 18.9111ZM20.2575 18.9111C21.2523 18.9111 22.0632 18.5759 22.6903 17.9055C23.3174 17.2352 23.631 16.4459 23.631 15.5376V5.93631H18.5708L17.1436 15.0186C16.9706 16.0566 17.1977 16.9649 17.8248 17.7433C18.4519 18.5218 19.2628 18.9111 20.2575 18.9111ZM8.71 18.9111C9.48849 18.9111 10.1697 18.6299 10.7535 18.0677C11.3374 17.5055 11.6942 16.7919 11.8239 15.9269L13.2512 5.93631H8.19101L5.59606 14.6294C5.33656 15.4944 5.47712 16.4242 6.01774 17.419C6.55835 18.4137 7.45577 18.9111 8.71 18.9111ZM43.7419 18.9111C44.9961 18.9111 45.9043 18.4137 46.4666 17.419C47.0288 16.4242 47.1585 15.4944 46.8558 14.6294L44.1311 5.93631H39.2007L40.6279 15.9269C40.7577 16.7919 41.1145 17.5055 41.6983 18.0677C42.2822 18.6299 42.9634 18.9111 43.7419 18.9111ZM8.06126 42.2656H44.3906V23.9712C44.1743 24.0577 44.0338 24.101 43.9689 24.101H43.7419C42.5741 24.101 41.547 23.9063 40.6603 23.5171C39.7737 23.1279 38.8979 22.5007 38.033 21.6358C37.2545 22.4143 36.3679 23.0197 35.3731 23.4522C34.3784 23.8847 33.3188 24.101 32.1943 24.101C31.0266 24.101 29.9345 23.8847 28.9182 23.4522C27.9018 23.0197 27.0044 22.4143 26.2259 21.6358C25.4907 22.4143 24.6365 23.0197 23.6634 23.4522C22.6903 23.8847 21.6415 24.101 20.517 24.101C19.2628 24.101 18.1275 23.8847 17.1112 23.4522C16.0948 23.0197 15.1974 22.4143 14.4189 21.6358C13.5107 22.544 12.6132 23.1819 11.7266 23.5495C10.84 23.9172 9.83448 24.101 8.71 24.101H8.41807C8.30994 24.101 8.19101 24.0577 8.06126 23.9712V42.2656Z" fill="#676767"/>
</svg>
