<?xml version="1.0" encoding="UTF-8"?>
<svg xmlns="http://www.w3.org/2000/svg" version="1.1" viewBox="0 0 800 800">
  <defs>
    <style>
      .cls-1 {
        fill: #fff;
        fill-rule: evenodd;
      }
    </style>
  </defs>
  <!-- Generator: Adobe Illustrator 28.6.0, SVG Export Plug-In . SVG Version: 1.2.0 Build 709)  -->
  <g>
    <g id="Capa_1">
      <path class="cls-1" d="M404.5,75c-182.8-2.5-332,146.7-329.5,329.5,2.4,175.3,145.2,318,320.5,320.5,182.8,2.5,332-146.7,329.5-329.5-2.4-175.3-145.1-318.1-320.4-320.5ZM398.8,312.7c.3-1.9.7-3.7,1.1-5.6,3.9-18.2,12.7-35.1,25.5-48.8,20.1-21.5,48.7-33.3,80.4-33.3,13.3,0,26.6,2.2,39.2,6.7,15.6,5.6,29.7,14.8,41,26.9,16.7,18,26.6,41.3,28.1,65.8.4,5.9.4,11.9,0,17.8h0c-1.2,16.8-5.5,33.2-12.8,48.4-.8,1.7-1.6,3.3-2.5,4.9-1.7,3.2-3.6,6.4-5.6,9.5-4,6.1-8.5,11.9-13.5,17.2-20.5,21.9-46.8,34-73.9,34-10.2,0-20.3-1.7-30-5-3.2-1.1-6.4-2.4-9.5-3.8-13-6.1-24.7-14.6-34.5-25.2-20.3-22-32.4-50.3-34.4-80.2-.3-4-.4-8-.3-12,.1-5.8.7-11.6,1.6-17.3h0ZM164.8,350.7c.8-11.1,3.5-22.1,8.1-32.2,1.3-2.8,2.8-5.6,4.3-8.3,3.2-5.4,7-10.4,11.2-14.9,6.3-6.8,13.7-12.5,21.9-16.9,4.1-2.2,8.3-4.1,12.7-5.7,16.7-5.9,34.7-7.1,52.1-3.7,18.4,3.6,35.3,12.9,48.1,26.6,15.2,16.4,23.8,37.9,24.1,60.3,0,3.3,0,6.6-.2,10-1,12.9-4.1,25.5-9.4,37.2-2.5,5.7-5.5,11.1-9,16.3-6.6,10-15,18.8-24.6,25.9-2.3,1.7-4.8,3.2-7.3,4.8-4.9,2.9-10.2,5.4-15.6,7.3-8.1,2.8-16.7,4.3-25.3,4.3-1.5,0-2.9,0-4.3-.1-2.9-.2-5.7-.5-8.6-1-2.8-.5-5.6-1.1-8.4-1.9-4.1-1.2-8.2-2.7-12.1-4.5-1.3-.6-2.6-1.2-3.9-1.9-28.1-14.8-49.3-45.6-53.5-81.4-.2-1.6-.3-3.3-.5-4.9-.4-5-.3-10,0-15ZM249.1,629.8c-41.6-27.4-75-65.6-96.8-110.4-1.5-3-.4-6.6,2.5-8.2,29-16.3,66.1-25.2,101.1-25.2s48,3.1,66.7,9.2c6.6,2.2,10.1,9.2,8,15.8-.7,2.2-2.1,4.2-3.9,5.7-36.5,29.7-60,66.5-71,110.5h0c-.6,2.3-2.9,3.7-5.2,3.2-.5-.1-.9-.3-1.4-.6ZM400,675c-35.2,0-70-6.7-102.7-19.9-2.7-1.1-4.3-4-3.7-7,.6-3.2,1.3-6.1,1.9-8.6,11.1-44.4,38.7-81.2,79.7-106.5,36.4-22.4,82.8-34.8,130.5-34.8s93.8,11.8,130.4,34.2h0c1.9,1.2,2.6,3.8,1.4,5.7-49.2,84.6-139.7,136.6-237.6,136.7Z"/>
      <path d="M251.6,461.4c-2.9-.2-5.7-.5-8.6-1,2.8.5,5.7.8,8.6,1Z"/>
      <path d="M210.4,278.3c-8.1,4.4-15.5,10.1-21.9,16.9-4.3,4.6-8,9.6-11.2,14.9,3.2-5.4,7-10.4,11.2-14.9,6.3-6.8,13.7-12.5,21.9-16.9Z"/>
      <path d="M337.8,403c5.2-11.8,8.4-24.4,9.4-37.2.2-3.4.3-6.7.2-10,0,3.3,0,6.6-.2,10-1,12.9-4.1,25.5-9.4,37.2Z"/>
      <path d="M210.4,278.3c4.1-2.2,8.3-4.1,12.7-5.7-4.4,1.6-8.6,3.5-12.7,5.7Z"/>
      <path d="M234.7,458.5c-4.1-1.2-8.2-2.7-12.1-4.5,3.9,1.8,7.9,3.3,12.1,4.5Z"/>
      <path d="M165.3,370.6c4.2,35.9,25.4,66.6,53.5,81.4-28.1-14.8-49.3-45.6-53.5-81.4Z"/>
      <path d="M397.4,342.2c1.9,29.9,14.1,58.2,34.4,80.2,9.7,10.6,21.5,19.1,34.5,25.2-13-6.1-24.7-14.6-34.5-25.2-20.3-22-32.4-50.3-34.4-80.2-.3-4-.4-8-.3-12,0,3.9,0,7.9.3,12Z"/>
      <path d="M475.8,451.3c-3.2-1.1-6.4-2.4-9.5-3.8,3.1,1.4,6.3,2.7,9.5,3.8Z"/>
      <path d="M399.9,307.1c3.9-18.2,12.7-35.1,25.5-48.8-12.7,13.7-21.5,30.5-25.5,48.8Z"/>
      <path d="M585.9,258.5c16.7,18,26.6,41.3,28.1,65.8-1.5-24.5-11.4-47.8-28.1-65.8-11.3-12.1-25.4-21.3-41-26.9,15.6,5.6,29.7,14.8,41,26.9Z"/>
      <path d="M614.1,342.2h0c-1.2,16.8-5.5,33.2-12.8,48.4,7.3-15.2,11.6-31.6,12.8-48.4Z"/>
      <path d="M397.1,330.1c.1-5.8.7-11.7,1.7-17.4-1,5.8-1.5,11.6-1.7,17.4Z"/>
      <path d="M598.7,395.6c-1.7,3.2-3.6,6.4-5.6,9.5,2-3.1,3.9-6.2,5.6-9.5Z"/>
      <path d="M323.3,295.4c15.2,16.4,23.8,37.9,24.1,60.3-.3-22.4-8.9-43.9-24.1-60.3-12.8-13.7-29.7-23-48.1-26.6,18.4,3.6,35.3,12.9,48.1,26.6Z"/>
      <path d="M296.9,450c-4.9,2.9-10.2,5.4-15.6,7.3,5.4-1.9,10.7-4.3,15.6-7.3Z"/>
      <path d="M164.8,350.7c.8-11.1,3.5-22.1,8.1-32.2-4.6,10.2-7.4,21.1-8.1,32.2Z"/>
      <path d="M304.2,445.1c-2.4,1.7-4.8,3.3-7.3,4.9,2.5-1.6,5-3.1,7.3-4.9Z"/>
      <path d="M337.8,403c-2.5,5.7-5.5,11.1-9,16.3,3.4-5.2,6.4-10.6,9-16.3Z"/>
      <path d="M173,318.5c1.3-2.8,2.8-5.6,4.3-8.3-1.6,2.7-3,5.4-4.3,8.3Z"/>
      <path d="M304.2,445.1c9.7-7.1,18-15.9,24.6-25.9-6.6,10-15,18.8-24.6,25.9Z"/>
    </g>
  </g>
</svg>