<?xml version="1.0" encoding="UTF-8"?>
<svg xmlns="http://www.w3.org/2000/svg" version="1.1" viewBox="0 0 800 800">
  <defs>
    <style>
      .cls-1 {
        fill: #676767;
        fill-rule: evenodd;
      }
    </style>
  </defs>
  <!-- Generator: Adobe Illustrator 28.7.1, SVG Export Plug-In . SVG Version: 1.2.0 Build 142)  -->
  <g>
    <g id="Capa_1">
      <g id="Capa_1-2" data-name="Capa_1">
        <g id="Capa_1-2">
          <path class="cls-1" d="M266.7,569.8c-9.3,0-18.7-3.6-25.8-10.7l-133.3-133.3c-3.6-3.6-6.3-7.8-8.1-12.2-1.5-3.8-2.4-7.9-2.6-12.2v-2.8c.2-4.3,1.1-8.4,2.6-12.2,1.8-4.4,4.5-8.6,8.1-12.2s0-.1.2-.2l133.2-133.2c14.3-14.3,37.4-14.3,51.6,0,14.3,14.3,14.3,37.4,0,51.6l-71,71h445.2c20.2,0,36.5,16.3,36.5,36.5s-16.3,36.5-36.5,36.5H221.5l71,71c14.3,14.3,14.3,37.4,0,51.6-7.1,7.1-16.5,10.7-25.8,10.7h0Z"/>
        </g>
      </g>
    </g>
  </g>
</svg>