<?xml version="1.0" encoding="UTF-8"?>
<svg xmlns="http://www.w3.org/2000/svg" version="1.1" viewBox="0 0 800 800">
  <defs>
    <style>
      .cls-1 {
        fill-rule: evenodd;
      }

      .cls-1, .cls-2 {
        fill: #676767;
      }
    </style>
  </defs>
  <!-- Generator: Adobe Illustrator 28.7.1, SVG Export Plug-In . SVG Version: 1.2.0 Build 142)  -->
  <g>
    <g id="Capa_1">
      <path class="cls-2" d="M366.7,266.7c0-18.4,14.9-33.3,33.3-33.3s33.3,14.9,33.3,33.3v100h100c18.4,0,33.3,14.9,33.3,33.3s-14.9,33.3-33.3,33.3h-100v100c0,18.4-14.9,33.3-33.3,33.3s-33.3-14.9-33.3-33.3v-100h-100c-18.4,0-33.3-14.9-33.3-33.3s14.9-33.3,33.3-33.3h100v-100Z"/>
      <path class="cls-1" d="M766.7,400c0,202.5-164.2,366.7-366.7,366.7S33.3,602.5,33.3,400,197.5,33.3,400,33.3s366.7,164.2,366.7,366.7ZM100.2,400c0,165.6,134.2,299.8,299.8,299.8s299.8-134.2,299.8-299.8S565.6,100.2,400,100.2,100.2,234.4,100.2,400Z"/>
    </g>
  </g>
</svg>